<?xml version="1.0" encoding="UTF-8" standalone="no"?>
<!DOCTYPE svg PUBLIC "-//W3C//DTD SVG 1.1//EN" "http://www.w3.org/Graphics/SVG/1.1/DTD/svg11.dtd">
<svg width="100%" height="100%" viewBox="0 0 388 120" version="1.1" xmlns="http://www.w3.org/2000/svg" xmlns:xlink="http://www.w3.org/1999/xlink" xml:space="preserve" xmlns:serif="http://www.serif.com/" style="fill-rule:evenodd;clip-rule:evenodd;stroke-linejoin:round;stroke-miterlimit:2;">
    <g transform="matrix(1,0,0,1,-145.312,-407.636)">
        <g transform="matrix(4.16667,0,0,4.16667,0,0)">
            <g transform="matrix(0.564232,0,0,0.564232,47.02,42.1338)">
                <g transform="matrix(1,0,0,1,34.4312,106.908)">
                    <path d="M0,28.238C-7.483,28.238 -10.376,25.032 -10.376,18.021L-10.376,0L-4.436,0L-4.436,17.821C-4.436,21.307 -4.037,23.486 0.078,23.486C4,23.486 4.477,21.546 4.477,17.821L4.477,0L10.419,0L10.419,18.021C10.419,24.834 7.884,28.238 0,28.238" style="fill:rgb(29,32,87);fill-rule:nonzero;"/>
                </g>
                <g transform="matrix(1,0,0,1,49.0464,132.335)">
                    <path d="M0,-16.082C1.781,-16.874 6.139,-18.418 10.417,-18.418C14.537,-18.418 18.377,-17.27 18.377,-11.327L18.377,2.336L12.872,2.336L12.872,-10.853C12.872,-13.546 11.405,-14.3 9.548,-14.3C8.201,-14.3 6.536,-14.022 5.504,-13.428L5.504,2.336L0,2.336L0,-16.082Z" style="fill:rgb(29,32,87);fill-rule:nonzero;"/>
                </g>
                <g transform="matrix(1,0,0,1,0,33.434)">
                    <path d="M77.01,101.237L71.308,101.237L71.308,80.919L77.01,80.919L77.01,101.237ZM71.308,73.474L77.01,73.474L77.01,77.79L71.308,77.79L71.308,73.474Z" style="fill:rgb(29,32,87);fill-rule:nonzero;"/>
                </g>
                <g transform="matrix(1,0,0,1,99.3062,116.057)">
                    <path d="M0,17.267C-1.703,17.863 -5.584,18.971 -10.097,18.971C-14.337,18.971 -18.298,17.149 -18.298,11.605L-18.298,-1.704L-12.753,-1.704L-12.753,11.168C-12.753,14.02 -11.01,14.693 -9.028,14.812C-7.563,14.812 -6.493,14.655 -5.545,14.377L-5.545,-1.704L0,-1.704L0,17.267Z" style="fill:rgb(29,32,87);fill-rule:nonzero;"/>
                </g>
                <g transform="matrix(1,0,0,1,108.852,111.581)">
                    <path d="M0,18.931C0.752,19.088 1.545,19.208 2.453,19.208C6.851,19.208 7.959,16.436 7.959,12.793C7.959,8.238 6.136,6.732 3.604,6.732C2.495,6.732 1.306,6.891 0,7.447L0,18.931ZM0,3.286C1.859,2.772 3.723,2.414 5.426,2.414C10.1,2.414 13.702,4.829 13.702,11.96C13.702,19.248 10.813,23.604 3.326,23.604C0.119,23.604 -3.764,22.932 -5.506,22.258L-5.506,-4.673L0,-4.673L0,3.286Z" style="fill:rgb(29,32,87);fill-rule:nonzero;"/>
                </g>
                <g transform="matrix(1,0,0,1,134.913,131.303)">
                    <path d="M0,-13.386C-3.486,-13.386 -4.12,-10.454 -4.157,-9.267L3.604,-9.267C3.604,-11.643 2.496,-13.386 0,-13.386M-4.318,-6.061L-4.318,-5.544C-4.318,-1.979 -1.902,-0.435 1.386,-0.435C3.248,-0.435 5.545,-0.712 7.209,-1.267L7.645,2.853C5.306,3.526 2.892,3.922 0.675,3.922C-5.109,3.922 -9.742,1.149 -9.742,-7.287C-9.742,-12.514 -7.011,-17.308 -0.159,-17.308C5.94,-17.308 8.237,-13.941 8.237,-9.585C8.237,-8.474 8.081,-7.287 7.803,-6.061L-4.318,-6.061Z" style="fill:rgb(29,32,87);fill-rule:nonzero;"/>
                </g>
            </g>
        </g>
        <g transform="matrix(4.16667,0,0,4.16667,0,0)">
            <g transform="matrix(0.564232,0,0,0.564232,-1.45883,71.9252)">
                <g transform="matrix(1,0,0,1,87.0689,70.0532)">
                    <path d="M0,-5.938L-0.734,-3.671L-3.118,-3.671L-1.188,-2.27L-1.927,0L0,-1.402L1.933,0L1.192,-2.27L3.124,-3.671L0.739,-3.671L0,-5.938Z" style="fill:rgb(29,32,87);fill-rule:nonzero;"/>
                </g>
                <g transform="matrix(1,0,0,1,80.2681,70.0532)">
                    <path d="M0,-5.938L-0.738,-3.671L-3.122,-3.671L-1.196,-2.27L-1.932,0L0,-1.402L1.931,0L1.193,-2.27L3.122,-3.671L0.74,-3.671L0,-5.938Z" style="fill:rgb(29,32,87);fill-rule:nonzero;"/>
                </g>
                <g transform="matrix(1,0,0,1,82.9302,74.7432)">
                    <path d="M0,-1.397L-2.382,-1.397L-0.455,0.005L-1.191,2.271L0.738,0.869L2.669,2.271L1.934,0.005L3.862,-1.397L1.474,-1.397L0.738,-3.668L0,-1.397Z" style="fill:rgb(29,32,87);fill-rule:nonzero;"/>
                </g>
                <g transform="matrix(1,0,0,1,91.1148,74.7422)">
                    <path d="M0,-1.396L-0.74,-3.669L-1.476,-1.396L-3.865,-1.396L-1.932,0.005L-2.669,2.273L-0.74,0.87L1.19,2.273L0.452,0.005L2.385,-1.396L0,-1.396Z" style="fill:rgb(29,32,87);fill-rule:nonzero;"/>
                </g>
                <g transform="matrix(1,0,0,1,73.8394,74.7457)">
                    <path d="M0,-1.402L1.932,0.002L1.193,2.268L3.125,0.866L5.054,2.268L4.317,0.002L6.244,-1.402L3.86,-1.402L3.125,-3.67L2.387,-1.402L0,-1.402Z" style="fill:rgb(29,32,87);fill-rule:nonzero;"/>
                </g>
                <g transform="matrix(1,0,0,1,102.709,96.7608)">
                    <path d="M0,-17.21L-38.211,-17.21C-37.209,-7.541 -29.038,0 -19.108,0C-9.176,0 -1.005,-7.541 0,-17.21M-3.582,-14.278C-5.675,-7.626 -11.863,-2.93 -19.108,-2.93C-26.353,-2.93 -32.537,-7.626 -34.632,-14.278L-3.582,-14.278" style="fill:rgb(29,32,87);fill-rule:nonzero;"/>
                </g>
                <g transform="matrix(1,0,0,1,67.3218,72.7441)">
                    <path d="M0,-23.897L6.01,-23.897L6.01,-9.928L0,-4.089L0,-23.897ZM8.938,-23.897L14.884,-23.897L14.884,-18.552L8.938,-12.774L8.938,-23.897ZM17.815,-23.897L23.759,-23.897L23.759,-12.646L17.815,-18.42L17.815,-23.897ZM26.686,-23.897L32.559,-23.897L32.559,-4.092L26.686,-9.799L26.686,-23.897ZM16.279,-15.736L35.49,2.931L35.49,-26.828L-2.927,-26.828C-2.927,-26.828 -2.925,0.193 -2.925,2.927L16.279,-15.736Z" style="fill:rgb(29,32,87);fill-rule:nonzero;"/>
                </g>
            </g>
        </g>
    </g>
</svg>
